<?xml version="1.0" encoding="utf-8"?>
<!-- Generator: Adobe Illustrator 26.2.1, SVG Export Plug-In . SVG Version: 6.00 Build 0)  -->
<svg version="1.1" id="a" xmlns="http://www.w3.org/2000/svg" xmlns:xlink="http://www.w3.org/1999/xlink" x="0px" y="0px"
	 viewBox="0 0 727.4 167.2" style="enable-background:new 0 0 727.4 167.2;" xml:space="preserve">
<style type="text/css">
	.st0{fill:#00D77A;}
	.st1{fill:#005BFF;}
	.st2{fill:#231F20;}
</style>
<g>
	<path class="st0" d="M66.7,62.7c1.4,1.4,3.2,2.1,5,2.1V0c-3.8,0-7.5,1.4-10.4,4.3L43,22.6c0,0-0.1,0.1-0.1,0.1l-8.1,8.1L66.7,62.7
		L66.7,62.7z"/>
	<path class="st0" d="M4.3,61.2c-5.7,5.7-5.7,15,0,20.7l40.8,40.8c1.9,1.9,2.9,4.4,2.9,7.1v22.4c0,8.1,6.6,14.6,14.7,14.6h9v-44.6
		c-3.2,0-6.5-1.2-8.9-3.7l-58-57.9"/>
	<path class="st0" d="M8.7,56.8l58,57.9c1.4,1.4,3.2,2.1,5,2.1V96.7c-3.2,0-6.5-1.2-8.9-3.7L17.6,47.9L8.7,56.8L8.7,56.8z"/>
	<path class="st0" d="M21.5,44l45.1,45.1c1.4,1.3,3.1,2.1,5,2.1V70.3c-3.2,0-6.5-1.2-8.9-3.7L30.9,34.7L21.5,44L21.5,44z"/>
	<path class="st1" d="M112.5,34.7L80.6,66.6c-2.5,2.5-5.7,3.7-8.9,3.7v20.9c1.9,0,3.7-0.7,5-2.1L121.9,44L112.5,34.7z"/>
	<path class="st1" d="M76.7,62.7l31.9-31.9l-8.1-8.1c0,0-0.1-0.1-0.1-0.1L82.1,4.3C79.2,1.4,75.4,0,71.7,0v64.8
		C73.5,64.8,75.3,64.1,76.7,62.7L76.7,62.7z"/>
	<path class="st1" d="M138.6,60.7l-58,57.9c-2.5,2.5-5.7,3.7-8.9,3.7v44.6h9c8.1,0,14.7-6.6,14.7-14.6v-22.4c0-2.6,1.1-5.2,2.9-7.1
		L139.1,82c5.7-5.7,5.7-15,0-20.7L138.6,60.7L138.6,60.7z"/>
	<path class="st1" d="M125.8,47.9L80.6,93c-2.5,2.5-5.7,3.7-8.9,3.7v20.1c1.8,0,3.6-0.7,5-2.1l58-57.9L125.8,47.9L125.8,47.9z"/>
</g>
<polyline class="st2" points="194.1,49.8 233.2,49.8 239,36.5 192.4,36.5 188.4,36.5 179.9,36.5 179.9,128.4 194.1,128.4 "/>
<path class="st2" d="M715,76.4h12.5v51.9H715v-5.1c-5.1,4.7-10.6,7.1-16.4,7.1c-7.4,0-13.5-2.6-18.3-7.9c-4.8-5.4-7.2-12.1-7.2-20.2
	s2.4-14.6,7.2-19.8s10.8-7.9,18-7.9c6.2,0,11.8,2.5,16.7,7.6L715,76.4L715,76.4z M685.7,102.2c0,5.1,1.4,9.2,4.1,12.4
	c2.8,3.2,6.4,4.8,10.7,4.8c4.6,0,8.3-1.6,11.1-4.7c2.8-3.2,4.2-7.3,4.2-12.3s-1.4-9.1-4.2-12.3c-2.8-3.1-6.5-4.7-11-4.7
	c-4.2,0-7.8,1.6-10.7,4.8C687.1,93.5,685.7,97.4,685.7,102.2L685.7,102.2z"/>
<path class="st2" d="M403.2,46l12.4-9.5v91.9h-12.4v-5.1c-4.9,4.7-10.4,7.1-16.5,7.1c-7.3,0-13.4-2.6-18.2-7.9
	c-4.8-5.4-7.2-12.1-7.2-20.2s2.4-14.5,7.2-19.8c4.8-5.3,10.7-8,18-8c6.3,0,11.9,2.5,16.8,7.6L403.2,46L403.2,46z M373.9,102.2
	c0,5.1,1.4,9.2,4.1,12.4c2.8,3.2,6.4,4.8,10.7,4.8c4.6,0,8.3-1.6,11.1-4.7c2.8-3.2,4.2-7.3,4.2-12.3s-1.4-9.1-4.2-12.3
	c-2.8-3.1-6.5-4.7-11-4.7c-4.2,0-7.8,1.6-10.7,4.8C375.3,93.5,373.9,97.4,373.9,102.2L373.9,102.2z"/>
<polygon class="st2" points="657.4,74.4 657.4,128.4 645,128.4 645,83.9 "/>
<path class="st1" d="M657.4,49.3v12.9L645,71.7V58.8L657.4,49.3L657.4,49.3z"/>
<path class="st2" d="M299.5,76.4h12.4v4.4c4.3-4.2,9.2-6.4,14.6-6.4c6.2,0,11.1,2,14.5,5.9c3,3.3,4.5,8.7,4.5,16.1v31.9h-12.4v-29
	c0-5.2-0.7-8.8-2.2-10.8c-1.4-2-4-3-7.8-3c-4.1,0-7,1.3-8.7,4c-1.7,2.6-2.5,7.3-2.5,13.9v25h-12.4L299.5,76.4L299.5,76.4z"/>
<path class="st2" d="M616.9,46l12.4-9.5v91.8h-12.4v-5.1c-4.9,4.7-10.4,7.1-16.5,7.1c-7.3,0-13.4-2.6-18.2-7.9
	c-4.8-5.4-7.2-12.1-7.2-20.2s2.4-14.5,7.2-19.8c4.8-5.3,10.7-8,18-8c6.3,0,11.9,2.5,16.8,7.6L616.9,46L616.9,46z M587.6,102.2
	c0,5.1,1.4,9.2,4.1,12.4c2.8,3.2,6.4,4.8,10.7,4.8c4.6,0,8.3-1.6,11.1-4.7c2.8-3.2,4.2-7.3,4.2-12.3s-1.4-9.1-4.2-12.3
	c-2.8-3.1-6.5-4.7-11-4.7c-4.2,0-7.8,1.6-10.7,4.8C589,93.5,587.6,97.4,587.6,102.2L587.6,102.2z"/>
<path class="st2" d="M466,84.9l-10.2,5.4c-1.6-3.3-3.6-4.9-6-4.9c-1.1,0-2.1,0.4-2.9,1.1c-0.8,0.7-1.2,1.7-1.2,2.8c0,2,2.4,4,7.1,6
	c6.5,2.8,11,5.4,13.2,7.7c2.3,2.4,3.4,5.5,3.4,9.5c0,5.1-1.9,9.4-5.7,12.8c-3.7,3.3-8.2,4.9-13.4,4.9c-9,0-15.3-4.3-19-13l10.5-4.8
	c1.5,2.5,2.6,4.1,3.3,4.8c1.5,1.4,3.3,2.1,5.4,2.1c4.2,0,6.3-1.9,6.3-5.6c0-2.2-1.6-4.2-4.8-6.1c-1.2-0.6-2.5-1.2-3.7-1.8
	c-1.2-0.6-2.5-1.2-3.8-1.8c-3.6-1.7-6.1-3.5-7.6-5.2c-1.9-2.2-2.8-5.1-2.8-8.5c0-4.6,1.6-8.4,4.8-11.4c3.2-3,7.2-4.5,11.9-4.5
	C457.6,74.4,462.7,77.9,466,84.9L466,84.9z"/>
<path class="st2" d="M250.5,76.4v29.9c0,8.8,3.5,13.2,10.5,13.2s10.5-4.4,10.5-13.2l-0.1-29.9h12.4v30.1c0,4.2-0.5,7.9-1.6,11
	c-1,2.8-2.8,5.2-5.3,7.5c-4.2,3.6-9.5,5.4-15.9,5.4s-11.7-1.8-15.9-5.4c-2.6-2.2-4.4-4.7-5.4-7.5c-1-2.5-1.5-6.1-1.5-11V76.4
	L250.5,76.4L250.5,76.4z"/>
<path class="st2" d="M485.2,46l12.4-9.5v91.9h-12.4V46L485.2,46z"/>
<polyline class="st2" points="194.1,126.9 194.1,89.7 216.6,89.7 222.5,76.4 194.1,76.4 194.1,48.3 "/>
<path class="st2" d="M513.2,76.4h12.4v4.4c4.3-4.2,9.2-6.4,14.6-6.4c6.2,0,11.1,2,14.5,5.9c3,3.3,4.5,8.7,4.5,16.1v31.9h-12.4v-29
	c0-5.2-0.7-8.8-2.2-10.8c-1.4-2-4-3-7.8-3c-4.1,0-7,1.3-8.7,4c-1.7,2.6-2.5,7.3-2.5,13.9v25h-12.4L513.2,76.4L513.2,76.4z"/>
</svg>
