<svg width="120" height="120" viewBox="0 0 120 120" fill="none" xmlns="http://www.w3.org/2000/svg">
<path fill-rule="evenodd" clip-rule="evenodd" d="M52.6515 43.0018C50.3839 43.4119 46.2804 44.4923 43.5323 45.404C39.402 46.773 38.1081 47.4791 36.0698 49.4749C32.2228 53.2414 31.276 56.765 30.6971 69.4603C30.1924 80.5374 30.3827 82.1315 32.7323 86.4773C36.074 92.6597 41.2915 95.2175 51.4486 95.6549L57.6887 95.9235L58.5462 97.4998C61.4126 102.77 65.6129 106.41 70.2568 107.646C73.108 108.404 79.916 108.674 81.4417 108.088C82.958 107.506 82.2871 106.063 79.7199 104.385C77.0774 102.658 75.4387 100.092 75.4387 97.6817C75.4387 96.3215 75.4581 96.3152 79.7761 96.3063C84.7876 96.2958 90.2165 95.2679 93.1271 93.779C100.962 89.7712 103.787 81.2892 102.816 64.688C102.152 53.3271 100.908 50.4281 94.9982 46.4681C91.0893 43.8488 89.6471 43.3109 84.9022 42.7016C78.8345 41.9224 57.5278 42.1212 52.6515 43.0018Z" fill="#0061FE"/>
<path fill-rule="evenodd" clip-rule="evenodd" d="M32.8526 12.2444C27.1866 12.6623 18.9233 14.0298 16.0248 15.0282C12.802 16.1386 7.47767 19.3383 5.41357 21.4051C0.21545 26.6095 -1.21828 35.704 1.02195 49.26C2.66283 59.1878 4.02873 61.7818 9.11329 64.6272C11.7452 66.0998 13.2042 66.5488 16.0175 66.7497L19.5842 67.0052L19.8823 69.1797C20.4044 72.9898 18.295 78.9845 15.7199 81.0102C14.0564 82.3188 14.11 82.5564 16.2746 83.4607C19.4443 84.7851 26.6992 84.0953 28.1639 82.3304C29.0283 81.2888 27.4232 80.7831 25.3112 81.4313C24.286 81.7457 23.0941 81.7583 22.2103 81.4639L20.775 80.9855L22.5578 78.6506C24.7197 75.8189 25.7481 71.9757 25.1777 68.8595C24.9511 67.6224 24.7518 66.3732 24.7345 66.0841C24.7176 65.7949 22.8107 65.409 20.4974 65.2266C13.3745 64.6651 11.2184 63.4995 8.95399 58.9864C7.8825 56.8508 7.5497 55.8592 6.7474 52.4145C5.77476 48.239 4.97877 39.7586 5.24217 36.379C5.89831 27.9638 9.05966 23.3288 16.7173 19.556C22.1798 16.8652 26.175 16.3252 41.0018 16.2742C49.4349 16.2453 52.9711 16.4409 55.9731 17.1034C60.7554 18.1585 64.9524 20.1443 67.2442 22.4366C69.4808 24.6732 71.7273 30.7535 72.2657 36.0284C72.497 38.2933 72.8918 40.3301 73.1426 40.5556C73.3934 40.7806 74.3492 40.7591 75.2661 40.5078C77.3234 39.9436 77.8082 38.2491 77.2919 33.428C76.7414 28.2903 74.5159 24.3298 70.2626 20.9219C61.5645 13.9509 56.8653 12.3669 43.8934 12.0314C40.568 11.9457 35.5997 12.0414 32.8526 12.2444ZM52.3055 30.335C46.0369 33.5484 45.263 33.6846 44.4502 31.7224C44.0911 30.8555 43.354 29.7451 42.8125 29.2551C41.8772 28.4081 41.6237 28.4927 37.7348 30.9559C33.0366 33.9306 31.8011 34.4921 31.8011 33.652C31.8011 32.5947 29.1429 29.5442 28.2255 29.5479C27.7344 29.5506 25.5005 30.5984 23.2613 31.8775C21.0226 33.1562 18.6836 34.3638 18.0637 34.5605C17.0732 34.8749 16.9759 34.7618 17.2609 33.6272C17.5038 32.6599 17.2472 32.0195 16.2383 31.0721C14.9192 29.8324 14.8771 29.8276 14.1458 30.8276C12.8351 32.6204 13.2194 34.9464 15.1337 36.8017C17.6126 39.2044 20.7592 39.1571 25.3238 36.6482L28.6603 34.8139L30.5551 36.9111C31.5966 38.0641 32.9199 39.0078 33.4946 39.0078C34.6207 39.0078 39.088 36.9032 41.149 35.4022C42.3924 34.4963 42.4465 34.5116 44.2204 36.2855C45.855 37.92 46.2346 38.063 48.2361 37.7944C49.4522 37.6314 52.031 36.685 53.9674 35.6919L57.4878 33.8854L59.2338 35.694C60.6875 37.1992 61.2422 37.4505 62.5413 37.194C65.1238 36.6829 65.2017 36.1098 63.0792 33.2187C61.5014 31.0695 57.645 27.8072 56.9163 28.0054C56.838 28.0269 54.7634 29.0748 52.3055 30.335ZM12.8977 44.983C12.0975 47.4067 12.4271 48.8173 14.2488 50.7657C15.4886 52.0917 15.9313 52.2399 17.9654 52.0107C19.3492 51.8546 21.5263 50.9781 23.3969 49.8236L26.5194 47.8962L28.0246 49.0092C29.2233 49.8951 29.8716 50.0339 31.2054 49.6879L32.8805 49.2542L30.1581 46.2337C28.3874 44.2695 27.0246 43.2138 26.2602 43.2138C25.6135 43.2138 23.9011 44.0277 22.4548 45.0224C20.2514 46.5382 16.4607 48.4714 15.6915 48.4714C15.5769 48.4714 15.6226 47.913 15.794 47.2311C16.0122 46.361 15.7236 45.5466 14.8261 44.503L13.5464 43.0156L12.8977 44.983Z" fill="#1E1919"/>
<path fill-rule="evenodd" clip-rule="evenodd" d="M78.5135 60.0178C72.2654 63.5929 71.6308 63.7096 70.807 61.4315C69.6098 58.1203 69.1356 58.0751 63.877 60.767C61.2709 62.1008 58.8004 63.1923 58.3861 63.1923C57.9723 63.1923 57.4723 62.6597 57.2746 62.0093C56.8083 60.4704 54.9555 58.4605 54.0039 58.4605C53.5933 58.4605 51.6706 59.5251 49.7311 60.8264C46.3153 63.1181 45.1003 63.6907 45.6949 62.7285C46.0335 62.1807 44.0483 59.512 43.3022 59.512C43.0194 59.512 42.44 60.3453 42.0141 61.3642C41.1072 63.535 41.4637 64.4846 43.9825 66.6039C45.411 67.8063 45.9899 67.9756 47.7249 67.698C48.8631 67.516 50.8494 66.5508 52.1864 65.5298L54.5964 63.6896L56.0291 65.2585C56.8172 66.1212 58.0874 66.984 58.8519 67.1759C61.0537 67.7285 64.3781 66.9603 66.7708 65.3457L68.9747 63.8579L70.5557 65.6281C73.0278 68.3962 76.0004 67.9403 82.5076 63.7969C85.6553 61.7916 86.1358 61.758 86.9229 63.4846C87.2594 64.2238 87.7709 64.6833 88.0585 64.5051C88.8924 63.9903 88.6705 62.1297 87.4839 59.6781C86.5317 57.7118 86.1637 57.4095 84.7237 57.4121C83.6984 57.4137 81.3189 58.4121 78.5135 60.0178ZM56.5123 74.5438C54.9361 75.5816 52.9897 76.7709 52.1869 77.1857C50.8431 77.8807 50.728 77.8629 50.728 76.957C50.728 75.9328 49.1964 74.2331 48.2737 74.2331C47.6428 74.2331 46.5219 76.529 46.5219 77.8208C46.5219 79.4548 49.4472 82.1194 51.2416 82.1194C52.698 82.1194 56.3719 80.5148 58.6915 78.8655C59.4055 78.3576 59.8503 78.5427 61.2293 79.9217C63.4112 82.1036 66.1225 82.1483 70.1403 80.0679L72.9915 78.5921L74.1708 79.9611C75.2018 81.1588 75.7343 81.3249 78.4167 81.2845C80.4766 81.2534 82.6937 80.7503 85.1648 79.754C87.1889 78.9375 88.9181 78.2151 89.0075 78.1483C89.3067 77.9244 87.6447 74.3656 87.0764 74.0143C86.7678 73.8235 85.5081 74.181 84.2778 74.8093C81.4735 76.2393 79.5077 76.8413 76.4646 77.2009C74.2701 77.4607 74.022 77.3708 73.4463 76.1063C73.1008 75.3492 72.4794 74.599 72.0646 74.4397C71.6498 74.2809 69.5914 74.997 67.4911 76.0317C62.9449 78.2714 62.2945 78.3402 62.2945 76.5805C62.2945 75.0496 60.8876 72.6558 59.9875 72.6558C59.6526 72.6558 58.089 73.5054 56.5123 74.5438Z" fill="#1E1919"/>
</svg>
