<svg width="120" height="120" viewBox="0 0 120 120" fill="none" xmlns="http://www.w3.org/2000/svg">
<path fill-rule="evenodd" clip-rule="evenodd" d="M20.469 16.5871C20.3582 16.9102 20.1914 22.0351 20.098 27.9762C19.9298 38.7135 19.92 38.8032 18.442 42.9564C17.4003 45.8842 15.8645 48.7393 13.3091 52.497C4.44664 65.5304 3.51155 67.8092 2.72722 78.2844C2.13357 86.2122 2.7756 98.3392 3.84219 99.3415C4.9487 100.381 69.4787 102.026 70.9369 101.052C71.5339 100.653 71.4897 100.076 70.6021 96.6907C70.0394 94.5444 69.442 91.5207 69.2739 89.9709L68.9686 87.1529L52.5719 70.7009L36.1753 54.2488L37.8449 52.6304C39.0773 51.4356 39.6878 51.1322 40.1772 51.4703C40.5417 51.7225 47.06 58.0051 54.6624 65.4313C62.2647 72.8575 68.699 78.934 68.9611 78.934C69.2232 78.934 69.5439 78.353 69.6745 77.6424C70.0648 75.5158 72.1768 68.5348 73.196 66.001C73.7197 64.6996 75.4499 61.4238 77.0406 58.7214C80.9364 52.103 83.8544 45.9951 84.8844 42.3008C85.5917 39.7627 85.7363 37.4262 85.7415 28.4459C85.7443 22.5047 85.5954 17.2742 85.4094 16.8219C85.0929 16.0503 83.0968 16 52.8711 16C27.5308 16 20.6273 16.1249 20.469 16.5871Z" fill="#0061FE"/>
<path fill-rule="evenodd" clip-rule="evenodd" d="M6.72737 17.5122C6.14594 17.7926 5.67064 18.1853 5.67064 18.3844C5.67064 19.1791 8.94697 28.1687 10.3217 31.1464C11.1266 32.8902 12.0476 34.3156 12.368 34.3147C13.335 34.3119 16.0031 32.4952 16.0031 31.8396C16.0031 30.9928 11.6682 20.8557 10.3841 18.7005C9.30109 16.8824 8.544 16.6363 6.72737 17.5122ZM1.21782 33.9643L0 35.021L4.31098 38.2015C7.07163 40.2384 8.9094 41.291 9.42038 41.1289C10.6171 40.749 12.398 38.6773 12.127 37.9803C11.8866 37.3627 3.79389 32.9076 2.91234 32.9076C2.64981 32.9076 1.88755 33.3833 1.21782 33.9643ZM8.72341 44.2456C4.12782 46.7272 0.974069 48.635 0.974069 48.9337C0.974069 49.1314 1.46533 49.8645 2.06602 50.5629L3.15844 51.8324L7.26935 49.5917C9.53075 48.3588 11.493 47.0579 11.6301 46.7005C11.887 46.0312 10.6124 43.6984 10.0042 43.7238C9.81631 43.7318 9.24004 43.9666 8.72341 44.2456ZM39.0628 48.7082C38.4569 49.1328 36.831 50.5319 35.4497 51.8174C32.4688 54.5916 32.3434 54.1102 37.7266 60.5393C43.2723 67.1629 52.7026 76.8341 69.1744 92.7888C72.6414 96.1468 76.3484 99.9313 77.4122 101.199C78.5948 102.607 80.023 103.736 81.0859 104.101L82.8245 104.699L85.5119 101.831C87.2449 99.9811 88.1232 98.674 87.9861 98.1485C87.8038 97.4515 86.3258 95.6166 79.6975 87.8574C67.911 74.0603 44.8649 50.2233 41.8648 48.7265C39.9721 47.7825 40.3807 47.7854 39.0628 48.7082ZM43.2056 54.5799L44.8123 56.4472L43.3386 57.921C42.5275 58.7316 41.8047 59.2971 41.7319 59.1769C41.6591 59.0571 40.7672 58.0671 39.7499 56.9775L37.8999 54.9955L39.0097 53.8143C40.5028 52.2255 41.3064 52.372 43.2056 54.5799ZM51.4693 63.083C53.2375 64.9555 56.2678 68.1788 58.2032 70.2453C60.1382 72.3118 63.7461 76.1249 66.2198 78.7183C68.6939 81.3123 71.603 84.4824 72.6842 85.7632C73.7653 87.0444 75.4561 88.9705 76.4414 90.0441C78.7953 92.6094 82.3732 96.7663 82.7902 97.4215C82.972 97.707 82.6846 98.4049 82.151 98.9727L81.1812 100.005L79.3021 97.8061C76.8143 94.8947 70.2772 88.1955 67.13 85.332C62.2122 80.8576 55.1852 73.8724 52.8712 71.1578C51.5796 69.6427 49.2891 67.1714 47.7806 65.6661L45.0382 62.929L46.2781 61.3035C46.9601 60.4093 47.6834 59.678 47.8858 59.678C48.0882 59.678 49.701 61.2105 51.4693 63.083Z" fill="#1E1919"/>
<path fill-rule="evenodd" clip-rule="evenodd" d="M31.9025 27.4923C31.7357 27.6628 31.7493 28.3701 31.933 29.0638C32.5741 31.4849 33.3039 31.575 53.9125 31.7775L72.9538 31.9639L72.6748 30.2459C72.5217 29.3014 72.23 28.3668 72.0267 28.17C71.5697 27.7262 32.3228 27.0631 31.9025 27.4923ZM56.1588 37.6679C36.4417 38.5602 28.7257 39.1126 27.7742 39.7006C26.9401 40.2162 28.2152 42.7702 29.317 42.7895C29.8731 42.7994 34.4489 42.7829 39.486 42.7529C48.8031 42.697 50.7315 42.6223 57.8026 42.0441C59.9983 41.8647 64.5892 41.7328 68.0045 41.7516C71.5448 41.7703 74.3355 41.5895 74.4957 41.3298C74.9973 40.5187 73.7682 37.7144 72.8002 37.4612C71.7036 37.1743 65.3186 37.2537 56.1588 37.6679ZM68.0539 50.0325C67.9693 50.1049 64.0148 50.2833 59.2656 50.4294C54.5165 50.5755 50.4534 50.8723 50.2369 51.0888C50.02 51.3058 50.0096 52.1061 50.2135 52.8674C50.5018 53.9471 50.9391 54.3294 52.1973 54.6037C54.5155 55.1095 70.9944 54.6596 71.5791 54.0749C71.8975 53.7564 71.913 52.9867 71.6251 51.8215C71.2405 50.2641 71.0089 50.0424 69.6977 49.9762C68.8776 49.9348 68.1379 49.9602 68.0539 50.0325ZM20.316 51.1625C19.86 51.4514 19.8064 51.9755 20.1122 53.1515L20.5269 54.7479L24.4091 54.8113C26.5441 54.846 28.6966 54.7685 29.1921 54.6389C30.1826 54.3801 30.3639 53.0792 29.6068 51.6641C29.1827 50.8718 28.5975 50.7567 25.0276 50.7628C22.7765 50.7671 20.656 50.947 20.316 51.1625ZM21.8739 61.835C17.4826 62.1487 13.6257 62.4258 13.3026 62.4512C12.5906 62.5071 12.5352 64.1002 13.2016 65.3461C13.6436 66.1713 14.2349 66.2545 19.6594 66.2521C22.9437 66.2507 27.7018 66.1126 30.2333 65.945L34.835 65.6402L34.695 63.4816L34.5546 61.3231L32.2063 61.2944C30.9148 61.2785 26.2652 61.5217 21.8739 61.835ZM21.7273 70.5067C19.6815 71.3272 17.7118 74.1738 16.0661 78.6872C14.9704 81.6925 14.7139 82.0523 13.8873 81.74C13.3721 81.5455 12.438 80.8349 11.8119 80.1605C11.0248 79.3137 10.1907 78.9352 9.1114 78.9352C8.25239 78.9352 7.54932 79.1564 7.54932 79.4274C7.54932 80.8279 11.6546 83.1504 14.1461 83.1593C14.6745 83.1612 14.875 83.6604 14.8825 84.9933C14.9107 89.8068 20.0812 92.1753 27.2195 90.6447C29.1127 90.2384 29.7665 90.2746 30.6475 90.8335C31.2468 91.2129 32.3914 91.6601 33.1921 91.8263C35.1229 92.2279 40.1238 91.3938 42.3303 90.3018C44.0858 89.4334 44.1098 89.4348 45.8649 90.4939C46.8371 91.081 48.4053 91.6915 49.3498 91.8507C51.443 92.2044 56.9516 91.3022 58.1234 90.4141C58.9026 89.8237 58.8382 89.7659 57.3875 89.7523C56.5134 89.7439 55.0002 89.9763 54.0252 90.2685C51.7929 90.9373 50.4859 90.6085 48.4095 88.8562L46.7657 87.4688L48.2395 85.9025C50.8174 83.1626 51.8554 80.1835 50.8076 78.5303C50.2045 77.5779 46.5919 77.035 44.4991 77.5816C43.0996 77.9475 42.5548 78.4049 42.0334 79.6523C41.1772 81.7019 41.1819 84.1643 42.0466 86.2332L42.7285 87.8652L40.2854 89.2667C37.3538 90.9481 35.1891 91.0763 33.7665 89.6537L32.7441 88.6312L34.3536 87.443C39.247 83.8323 41.9808 79.4819 40.1825 78.1668C38.1987 76.7161 33.2043 76.84 31.8226 78.3749C30.2436 80.1281 28.6679 84.0638 28.6158 86.3839C28.5669 88.5509 28.4481 88.782 27.0969 89.3479C26.2905 89.6852 24.7158 89.9637 23.5966 89.9665C21.8884 89.9712 21.3422 89.726 20.1916 88.4382C19.2447 87.3787 18.8211 86.4093 18.8211 85.3014C18.8211 83.7266 18.8685 83.6886 21.5216 83.1508C26.5394 82.134 31.0322 78.2246 31.0322 74.8759C31.0322 71.726 25.3451 69.056 21.7273 70.5067ZM26.6024 73.0682C27.5229 75.2709 27.1162 76.5568 24.774 78.8497C22.7761 80.8058 19.2907 82.6492 19.2907 81.7503C19.2907 79.5232 24.1235 71.4207 25.4517 71.4207C25.7058 71.4207 26.2238 72.1623 26.6024 73.0682ZM37.1377 79.5692C37.1377 80.6729 35.1694 83.7656 33.6937 84.9806C33.0207 85.5353 32.9108 85.5198 32.9108 84.8731C32.9108 83.7919 34.3419 80.2535 35.1699 79.2874C36.1651 78.1264 37.1377 78.2659 37.1377 79.5692ZM47.0442 81.7926C46.7474 82.7826 46.2993 83.7191 46.0481 83.8746C45.43 84.2564 45.4624 81.214 46.0941 79.5528C46.5581 78.3331 46.6351 78.2988 47.0902 79.1118C47.4387 79.735 47.4251 80.5207 47.0442 81.7926Z" fill="#1E1919"/>
</svg>
