<svg width="120" height="120" viewBox="0 0 120 120" fill="none" xmlns="http://www.w3.org/2000/svg">
<g clip-path="url(#clip0_2294_10)">
<path fill-rule="evenodd" clip-rule="evenodd" d="M26.8803 15.4136C18.2758 16.5453 8.73965 23.0355 4.31285 30.7731C1.39975 35.8643 0.347116 39.7705 0.0908634 46.4364C-0.12157 51.9511 -0.0315477 52.8575 1.12969 56.9047C5.73558 72.962 19.7952 83.9652 35.7234 83.978C40.959 83.9823 44.5984 83.3021 48.9138 81.5122L52.3708 80.0785L57.1896 84.2924C59.8398 86.6101 66.107 92.0914 71.1173 96.4735C76.1276 100.855 80.5815 104.446 81.0154 104.452C82.0266 104.465 89.991 96.0324 89.991 94.9479C89.991 94.4982 88.9731 93.2093 87.7285 92.0838C86.4844 90.9583 81.7499 86.4777 77.2083 82.1271C72.6662 77.7765 67.745 73.1268 66.2718 71.7946L63.594 69.3721L64.8458 66.5552C67.6269 60.2984 68.1933 57.3801 67.958 50.5198C67.7827 45.4167 67.5036 43.48 66.4995 40.395C63.3411 30.694 56.0812 22.6644 46.3627 18.1238C40.0897 15.1935 34.4831 14.4134 26.8803 15.4136Z" fill="#0061FE"/>
<path fill-rule="evenodd" clip-rule="evenodd" d="M28.5471 19.9626C27.8922 20.0817 26.3918 20.4084 25.2129 20.6889C24.0341 20.969 22.5337 21.291 21.8788 21.4039C19.7383 21.773 17.8773 22.6623 14.9523 24.7128C3.10182 33.021 0.289223 50.5939 8.57458 64.5583C16.6828 78.224 33.1835 83.3109 47.5379 76.5712C52.3715 74.3021 57.2822 69.3875 59.6471 64.452C61.9429 59.6618 62.4744 57.0869 62.4492 50.8773C62.4321 46.7158 62.1939 44.9015 61.2918 42.058C57.98 31.6226 50.3162 23.845 40.4548 20.9114C37.8113 20.125 30.7476 19.562 28.5471 19.9626ZM38.7672 22.497C45.9928 25.0672 52.7463 31.5306 56.3391 39.314C57.7304 42.3276 59.0312 48.2581 59.0226 51.5489C58.9945 62.1558 53.3322 72.0401 44.8939 76.2102C41.8894 77.6953 40.7477 77.9939 37.4054 78.1697C32.5 78.4269 29.4078 77.7829 25.0439 75.5943C14.5641 70.3382 8.10828 59.9219 8.01111 48.1109C7.96824 42.892 8.56696 40.1751 10.8132 35.3973C12.818 31.1329 18.3284 25.3434 22.1169 23.5211C23.4268 22.8909 24.6056 22.2222 24.7366 22.035C25.6245 20.7661 34.7453 21.0662 38.7672 22.497ZM38.1933 31.6188C37.1473 31.9374 35.5769 33.3459 33.3464 35.9651C29.4807 40.5038 29.0801 41.4536 30.7591 42.0918C32.6657 42.8167 33.0696 42.6515 34.6081 40.5176C38.8777 34.5962 42.9825 31.825 44.5534 33.8041C45.7365 35.2959 46.2233 36.931 45.909 38.3618C45.5451 40.0189 39.3621 48.4419 37.1325 50.3176C36.0146 51.2583 35.2368 51.5708 34.5419 51.3584C33.9956 51.1912 32.609 50.9302 31.4611 50.7777C29.806 50.5582 29.4197 50.6387 29.5926 51.1655C30.1675 52.9164 38.088 53.8175 40.7172 52.4315C42.501 51.4908 48.1824 45.7184 50.0719 42.9268C51.1855 41.2816 51.4155 40.51 51.2346 39.0325C50.6363 34.148 43.3988 30.0336 38.1933 31.6188ZM24.0222 45.3359C22.2427 46.4381 19.2401 49.6665 17.14 52.7349C15.7397 54.7811 15.5382 55.4575 15.5058 58.2243C15.4763 60.7545 15.6777 61.6723 16.5213 62.8574C17.9716 64.8941 20.2936 65.881 23.6359 65.881C27.4854 65.881 29.9274 64.5225 33.6964 60.2844L36.7672 56.8311H34.41C32.0941 56.8311 31.9989 56.8902 28.9901 60.2086C27.3054 62.0662 25.5254 63.8028 25.0343 64.0677C22.9076 65.2146 20.2422 61.7642 20.5875 58.3115C20.8223 55.9662 22.5218 53.1207 25.9798 49.284L28.7033 46.2623L31.2449 46.5796C32.6429 46.7544 33.7865 46.7644 33.7865 46.6015C33.7865 46.4391 32.8758 45.8923 31.7622 45.3869C29.1658 44.2085 25.8774 44.1866 24.0222 45.3359ZM56.895 74.9222C54.3653 77.7991 52.4134 80.3436 52.5573 80.5765C52.7011 80.8094 53.5018 81.1361 54.3367 81.3033C55.7623 81.5886 56.0829 81.3624 59.6237 77.571C61.6966 75.3509 63.8424 72.9627 64.3925 72.264C65.3632 71.0294 65.3666 70.9746 64.5016 70.3421C62.5926 68.9465 61.6504 69.5138 56.895 74.9222ZM81.5939 89.8321C78.6193 91.5291 73.32 97.0953 73.32 98.5228C73.32 98.829 76.3783 100.175 77.0742 100.175C77.3219 100.175 78.2569 99.4782 79.1519 98.6271C80.0464 97.7759 81.4043 96.5275 82.1697 95.854C83.8016 94.4165 86.1802 91.5734 86.1802 91.0605C86.1802 90.5146 84.1574 89.2176 83.3353 89.2367C82.9352 89.2462 82.1516 89.5139 81.5939 89.8321Z" fill="white"/>
<path fill-rule="evenodd" clip-rule="evenodd" d="M73.3715 20.7439C73.5511 28.5177 73.4811 28.3301 76.1193 28.1591L78.3218 28.0162L78.1713 22.5677C78.0884 19.5713 77.8131 16.731 77.5592 16.2566C77.2305 15.6427 76.5432 15.394 75.1729 15.394H73.2482L73.3715 20.7439ZM63.0433 24.9797C62.8508 25.2912 64.2859 27.0907 66.4684 29.2746C70.0264 32.835 70.3127 33.0184 71.8916 32.7526C75.0119 32.2267 75.0005 31.5761 71.8264 28.9664C70.235 27.658 68.366 26.1052 67.6734 25.516C66.3336 24.3767 63.611 24.0609 63.0433 24.9797ZM83.5611 27.0426C80.3223 29.2231 77.3044 31.9028 77.6673 32.2758C77.8312 32.4439 78.6885 32.6935 79.5726 32.8302C80.9334 33.0403 81.7998 32.6735 85.2282 30.4344C87.455 28.9802 89.4378 27.7876 89.6341 27.7842C90.3114 27.7728 89.9894 26.8578 89.1578 26.432C86.9858 25.3189 85.9541 25.4313 83.5611 27.0426ZM79.7931 36.2992C78.9953 36.6121 79.132 36.8279 80.9043 38.052C82.016 38.8193 83.5559 39.9529 84.3256 40.5702C85.4378 41.4623 86.0622 41.63 87.3654 41.3852C90.4123 40.8136 90.0608 40.0801 85.5693 37.6347C82.2985 35.8538 81.4368 35.6547 79.7931 36.2992ZM73.7378 36.8212C72.9671 37.2827 72.9376 38.2506 73.5206 43.9725C73.6139 44.8894 73.7145 46.2287 73.7435 46.9494C73.7859 47.9849 74.0274 48.2592 74.8966 48.2592C75.5016 48.2592 76.388 47.973 76.8662 47.6229C77.664 47.0399 77.7011 46.555 77.3144 41.7881C76.9033 36.7188 76.8633 36.5869 75.7021 36.474C75.0472 36.4101 74.1631 36.5664 73.7378 36.8212ZM7.27388 81.4264C6.54894 81.7227 7.03525 83.3878 8.96191 87.204C10.367 89.9861 10.5556 90.1666 11.7678 89.8785C14.4037 89.2517 14.4128 89.1607 12.2556 85.0259C10.509 81.6774 10.0508 81.1297 9.02431 81.1621C8.36653 81.1825 7.57872 81.3016 7.27388 81.4264ZM21.6412 84.7668C19.102 86.0928 17.123 87.5417 17.1196 88.0761C17.1177 88.3629 17.535 88.9763 18.0465 89.4398C19.0496 90.3476 19.0311 90.3534 25.1426 87.1311L26.7387 86.2895L25.6551 85.1359C24.4024 83.8027 23.6241 83.7308 21.6412 84.7668ZM6.39938 94.2753C5.08953 95.1636 3.43008 96.2829 2.71229 96.7635L1.40625 97.637L2.47413 98.5978C4.33506 100.273 4.66134 100.277 6.72946 98.6544C11.0086 95.2965 11.4297 94.8321 10.8405 94.1219C9.58635 92.6106 8.81616 92.6373 6.39938 94.2753ZM14.5585 94.5949C13.7741 95.1688 13.8069 95.4108 15.1077 98.6482C15.8684 100.542 16.6086 102.209 16.7519 102.353C16.8958 102.496 17.8027 102.284 18.7672 101.881C20.8001 101.032 20.7753 100.595 18.4571 96.4853C17.002 93.9066 16.0994 93.4684 14.5585 94.5949Z" fill="white"/>
</g>
<defs>
<clipPath id="clip0_2294_10">
<rect width="120" height="120" fill="white"/>
</clipPath>
</defs>
</svg>
