<svg width="120" height="120" viewBox="0 0 120 120" fill="none" xmlns="http://www.w3.org/2000/svg">
<path fill-rule="evenodd" clip-rule="evenodd" d="M24.13 49.3105C23.9837 49.4562 18.8366 49.6076 12.6917 49.6459C4.78614 49.6958 1.27266 49.8966 0.676485 50.3329C-0.100759 50.9013 -0.137074 53.0646 0.209937 78.3061C0.528199 101.466 0.700695 105.778 1.33419 106.411C1.98585 107.063 5.89728 107.119 31.6568 106.845C47.9224 106.671 61.5512 106.428 61.9426 106.303C63.2232 105.895 61.8266 51.273 60.5016 49.9465C60.0915 49.5354 54.7073 49.3181 42.1579 49.2051C32.3881 49.1168 24.2758 49.1642 24.13 49.3105Z" fill="#0061FE"/>
<path fill-rule="evenodd" clip-rule="evenodd" d="M19.3671 13.263C16.2717 13.7568 10.8542 16.3992 8.66271 18.4848C6.30374 20.7288 4.5939 26.3304 4.39316 32.4682C4.19242 38.6246 4.93738 49.6825 5.6082 50.4996C6.33249 51.3818 7.36041 51.2849 8.41052 50.2348C9.22256 49.4228 9.26644 48.7313 8.8806 42.7953C8.11041 30.9323 9.06318 24.0683 12.0541 19.9395C15.3492 15.391 24.5844 13.1021 35.0532 14.2395C42.4771 15.0465 45.7944 17.2562 48.453 23.1649C49.4834 25.4553 49.5979 26.6683 49.8551 38.0163L50.135 50.3735H51.8918C53.5456 50.3735 53.6697 50.255 54.0061 48.356C54.5811 45.1149 54.4742 30.2408 53.8553 27.323C52.4234 20.5765 48.5674 16.5763 41.2404 14.237C38.7079 13.4285 36.3257 13.1753 29.96 13.0366C25.5215 12.9397 20.7546 13.0421 19.3671 13.263ZM65.8136 16.7629C64.9925 18.0919 61.4835 27.7921 61.4835 28.7338C61.4835 29.5297 61.937 30.0058 63.0718 30.4012C65.337 31.1911 65.4187 31.1573 66.3149 29.0636C67.5688 26.1357 70.0529 19.1647 70.0554 18.565C70.0569 18.27 69.256 17.6455 68.2755 17.178C66.2115 16.194 66.1697 16.1869 65.8136 16.7629ZM23.6361 21.8026C18.7785 22.8492 15.4027 25.6243 14.0792 29.6598C13.3408 31.9113 13.2071 49.4581 13.9228 50.1738C14.1569 50.4078 15.0239 50.4184 15.8496 50.1975L17.3506 49.796L17.4363 42.5189C17.5634 31.7292 17.9049 29.3683 19.6929 26.8998C21.9359 23.8035 24.831 22.6636 30.4644 22.659C33.1956 22.657 35.4567 22.9097 36.1411 23.2936C36.7666 23.6446 38.0083 25.3418 38.9011 27.0653L40.5237 30.1985L40.79 40.119C40.9362 45.5754 41.2308 50.2136 41.4446 50.4265C41.658 50.6393 42.4524 50.5949 43.21 50.3281L44.5869 49.8429V39.7685C44.5869 30.0361 44.5445 29.6109 43.335 27.2428C41.8905 24.4148 40.4293 23.1175 37.8454 22.3695C35.4799 21.6846 25.9497 21.3043 23.6361 21.8026ZM74.7173 26.0374C73.8574 27.2161 72.6272 28.7529 71.9841 29.4515C69.5424 32.1045 66.0229 36.9521 66.0229 37.6627C66.0229 38.3815 67.4422 39.0044 69.1122 39.018C69.8753 39.0245 80.9474 27.2257 80.8642 26.4943C80.8087 26.0056 77.5716 23.8938 76.8781 23.8938C76.5497 23.8938 75.5778 24.8586 74.7173 26.0374ZM75.6061 42.5491C68.2744 45.2798 67.0317 45.8311 67.0317 46.3521C67.0317 46.6411 67.6697 47.2545 68.4495 47.715C69.7306 48.472 70.18 48.4831 73.1149 47.8315C74.9009 47.4345 78.1219 46.7339 80.2715 46.2745C82.4742 45.8034 84.1805 45.1779 84.1805 44.8415C84.1805 43.918 80.3764 40.8383 79.5483 41.091C79.4605 41.1177 77.6866 41.7739 75.6061 42.5491Z" fill="#1E1919"/>
<path fill-rule="evenodd" clip-rule="evenodd" d="M26.9398 62.264C24.2192 62.9408 21.7931 64.6814 21.0174 66.5133C20.6648 67.3456 20.4025 69.3737 20.4348 71.021C20.4858 73.6074 20.6784 74.1738 21.8501 75.1821C22.5961 75.8236 23.5635 76.3487 23.9992 76.3487C24.9676 76.3487 24.8446 77.766 22.9113 88.9056C21.9641 94.3615 21.7275 96.7724 22.1154 97.012C23.0656 97.5991 35.8914 97.5683 38.4466 96.9721C39.7852 96.6599 41.0078 96.0743 41.1622 95.6713C41.4401 94.9471 41.2373 93.5393 39.2869 82.6534C38.0365 75.6743 38.036 74.9813 39.2793 74.5869C40.5433 74.1859 41.5465 70.969 41.1188 68.6892C40.7445 66.6944 38.6236 64.2028 36.2586 62.9797C34.232 61.9321 29.6805 61.5826 26.9398 62.264ZM32.9645 65.9273C34.3258 68.2499 34.572 70.3834 33.7337 72.5881C33.1925 74.0124 33.2122 74.1627 35.5157 86.1386C37.3158 95.4943 37.4227 95.0106 33.5531 95.0106C31.7848 95.0106 29.5953 95.1589 28.6874 95.3405L27.0376 95.6708L27.4003 92.4403C27.5995 90.6639 28.064 87.3945 28.4322 85.1753C29.9257 76.1721 29.9267 76.2024 27.9515 73.8384C26.4732 72.0685 26.1787 71.3221 26.1877 69.3656C26.1993 66.935 27.0603 65.3644 28.9507 64.3249C30.7614 63.3287 31.6496 63.6833 32.9645 65.9273Z" fill="#1E1919"/>
</svg>
