<svg width="120" height="120" viewBox="0 0 120 120" fill="none" xmlns="http://www.w3.org/2000/svg">
<path fill-rule="evenodd" clip-rule="evenodd" d="M24.13 49.3105C23.9837 49.4562 18.8366 49.6076 12.6917 49.6459C4.78614 49.6958 1.27266 49.8966 0.676485 50.3329C-0.100759 50.9013 -0.137074 53.0646 0.209937 78.3061C0.528199 101.466 0.700695 105.778 1.33419 106.411C1.98585 107.063 5.89728 107.119 31.6568 106.845C47.9224 106.671 61.5512 106.428 61.9426 106.303C63.2232 105.895 61.8266 51.273 60.5016 49.9465C60.0915 49.5354 54.7073 49.3181 42.1579 49.2051C32.3881 49.1168 24.2758 49.1642 24.13 49.3105Z" fill="#0061FE"/>
<path fill-rule="evenodd" clip-rule="evenodd" d="M19.3666 13.263C16.2712 13.7568 10.8537 16.3992 8.66222 18.4848C6.30325 20.7288 4.59341 26.3304 4.39267 32.4682C4.19193 38.6246 4.93689 49.6825 5.60771 50.4996C6.332 51.3818 7.35992 51.2849 8.41003 50.2348C9.22207 49.4228 9.26595 48.7313 8.88011 42.7953C8.10992 30.9323 9.06269 24.0683 12.0536 19.9395C15.3487 15.391 24.5839 13.1021 35.0527 14.2395C42.4766 15.0465 45.7939 17.2562 48.4525 23.1649C49.4829 25.4553 49.5974 26.6683 49.8546 38.0163L50.1345 50.3735H51.8913C53.5451 50.3735 53.6692 50.255 54.0056 48.356C54.5806 45.1149 54.4737 30.2408 53.8548 27.323C52.4229 20.5765 48.5669 16.5763 41.2399 14.237C38.7074 13.4285 36.3252 13.1753 29.9595 13.0366C25.521 12.9397 20.7541 13.0421 19.3666 13.263ZM65.8131 16.7629C64.992 18.0919 61.483 27.7921 61.483 28.7338C61.483 29.5297 61.9365 30.0058 63.0713 30.4012C65.3365 31.1911 65.4182 31.1573 66.3144 29.0636C67.5683 26.1357 70.0524 19.1647 70.0549 18.565C70.0564 18.27 69.2555 17.6455 68.275 17.178C66.211 16.194 66.1692 16.1869 65.8131 16.7629ZM23.6356 21.8026C18.778 22.8492 15.4022 25.6243 14.0787 29.6598C13.3403 31.9113 13.2066 49.4581 13.9223 50.1738C14.1564 50.4078 15.0234 50.4184 15.8491 50.1975L17.3501 49.796L17.4358 42.5189C17.5629 31.7292 17.9044 29.3683 19.6924 26.8998C21.9354 23.8035 24.8305 22.6636 30.4639 22.659C33.1951 22.657 35.4562 22.9097 36.1406 23.2936C36.7661 23.6446 38.0078 25.3418 38.9006 27.0653L40.5232 30.1985L40.7895 40.119C40.9357 45.5754 41.2303 50.2136 41.4441 50.4265C41.6575 50.6393 42.4519 50.5949 43.2095 50.3281L44.5864 49.8429V39.7685C44.5864 30.0361 44.544 29.6109 43.3345 27.2428C41.89 24.4148 40.4288 23.1175 37.8449 22.3695C35.4794 21.6846 25.9492 21.3043 23.6356 21.8026ZM74.7168 26.0374C73.8569 27.2161 72.6267 28.7529 71.9836 29.4515C69.5419 32.1045 66.0224 36.9521 66.0224 37.6627C66.0224 38.3815 67.4417 39.0044 69.1117 39.018C69.8748 39.0245 80.9469 27.2257 80.8637 26.4943C80.8082 26.0056 77.5711 23.8938 76.8776 23.8938C76.5492 23.8938 75.5773 24.8586 74.7168 26.0374ZM75.6056 42.5491C68.2739 45.2798 67.0312 45.8311 67.0312 46.3521C67.0312 46.6411 67.6692 47.2545 68.449 47.715C69.7301 48.472 70.1795 48.4831 73.1144 47.8315C74.9004 47.4345 78.1214 46.7339 80.271 46.2745C82.4737 45.8034 84.18 45.1779 84.18 44.8415C84.18 43.918 80.3759 40.8383 79.5478 41.091C79.46 41.1177 77.6861 41.7739 75.6056 42.5491Z" fill="white"/>
<path fill-rule="evenodd" clip-rule="evenodd" d="M26.9393 62.264C24.2187 62.9408 21.7926 64.6814 21.0169 66.5133C20.6643 67.3456 20.402 69.3737 20.4343 71.021C20.4853 73.6074 20.6779 74.1738 21.8496 75.1821C22.5956 75.8236 23.563 76.3487 23.9987 76.3487C24.9671 76.3487 24.8441 77.766 22.9108 88.9056C21.9636 94.3615 21.727 96.7724 22.1149 97.012C23.0651 97.5991 35.8909 97.5683 38.4461 96.9721C39.7847 96.6599 41.0073 96.0743 41.1617 95.6713C41.4396 94.9471 41.2368 93.5393 39.2864 82.6534C38.036 75.6743 38.0355 74.9813 39.2788 74.5869C40.5428 74.1859 41.546 70.969 41.1183 68.6892C40.744 66.6944 38.6231 64.2028 36.2581 62.9797C34.2315 61.9321 29.68 61.5826 26.9393 62.264ZM32.964 65.9273C34.3253 68.2499 34.5715 70.3834 33.7332 72.5881C33.192 74.0124 33.2117 74.1627 35.5152 86.1386C37.3153 95.4943 37.4222 95.0106 33.5526 95.0106C31.7843 95.0106 29.5948 95.1589 28.6869 95.3405L27.0371 95.6708L27.3998 92.4403C27.599 90.6639 28.0635 87.3945 28.4317 85.1753C29.9252 76.1721 29.9262 76.2024 27.951 73.8384C26.4727 72.0685 26.1782 71.3221 26.1872 69.3656C26.1988 66.935 27.0598 65.3644 28.9502 64.3249C30.7609 63.3287 31.6491 63.6833 32.964 65.9273Z" fill="white"/>
</svg>
