<svg width="120" height="120" viewBox="0 0 120 120" fill="none" xmlns="http://www.w3.org/2000/svg">
<path fill-rule="evenodd" clip-rule="evenodd" d="M20.4685 16.5871C20.3577 16.9102 20.1909 22.0351 20.0975 27.9762C19.9293 38.7135 19.9195 38.8032 18.4415 42.9564C17.3998 45.8842 15.864 48.7393 13.3086 52.497C4.44615 65.5304 3.51106 67.8092 2.72673 78.2844C2.13308 86.2122 2.77511 98.3392 3.8417 99.3415C4.94821 100.381 69.4782 102.026 70.9364 101.052C71.5334 100.653 71.4892 100.076 70.6016 96.6907C70.0389 94.5444 69.4415 91.5207 69.2734 89.9709L68.9681 87.1529L52.5714 70.7009L36.1748 54.2488L37.8444 52.6304C39.0768 51.4356 39.6873 51.1322 40.1767 51.4703C40.5412 51.7225 47.0595 58.0051 54.6619 65.4313C62.2642 72.8575 68.6985 78.934 68.9606 78.934C69.2227 78.934 69.5434 78.353 69.674 77.6424C70.0643 75.5158 72.1763 68.5348 73.1955 66.001C73.7192 64.6996 75.4494 61.4238 77.0401 58.7214C80.9359 52.103 83.8539 45.9951 84.8839 42.3008C85.5912 39.7627 85.7358 37.4262 85.741 28.4459C85.7438 22.5047 85.5949 17.2742 85.4089 16.8219C85.0924 16.0503 83.0963 16 52.8706 16C27.5303 16 20.6268 16.1249 20.4685 16.5871Z" fill="#0061FE"/>
<path fill-rule="evenodd" clip-rule="evenodd" d="M6.72737 17.5122C6.14594 17.7926 5.67064 18.1853 5.67064 18.3844C5.67064 19.1791 8.94697 28.1687 10.3217 31.1464C11.1266 32.8902 12.0476 34.3156 12.368 34.3147C13.335 34.3119 16.0031 32.4952 16.0031 31.8396C16.0031 30.9928 11.6682 20.8557 10.3841 18.7005C9.30109 16.8824 8.544 16.6363 6.72737 17.5122ZM1.21782 33.9643L0 35.021L4.31098 38.2015C7.07163 40.2384 8.9094 41.291 9.42038 41.1289C10.6171 40.749 12.398 38.6773 12.127 37.9803C11.8866 37.3627 3.79389 32.9076 2.91234 32.9076C2.64981 32.9076 1.88755 33.3833 1.21782 33.9643ZM8.72341 44.2456C4.12782 46.7272 0.974069 48.635 0.974069 48.9337C0.974069 49.1314 1.46533 49.8645 2.06602 50.5629L3.15844 51.8324L7.26935 49.5917C9.53075 48.3588 11.493 47.0579 11.6301 46.7005C11.887 46.0312 10.6124 43.6984 10.0042 43.7238C9.81631 43.7318 9.24004 43.9666 8.72341 44.2456ZM39.0628 48.7082C38.4569 49.1328 36.831 50.5319 35.4497 51.8174C32.4688 54.5916 32.3434 54.1102 37.7266 60.5393C43.2723 67.1629 52.7026 76.8341 69.1744 92.7888C72.6414 96.1468 76.3484 99.9313 77.4122 101.199C78.5948 102.607 80.023 103.736 81.0859 104.101L82.8245 104.699L85.5119 101.831C87.2449 99.9811 88.1232 98.674 87.9861 98.1485C87.8038 97.4515 86.3258 95.6166 79.6975 87.8574C67.911 74.0603 44.8649 50.2233 41.8648 48.7265C39.9721 47.7825 40.3807 47.7854 39.0628 48.7082ZM43.2056 54.5799L44.8123 56.4472L43.3386 57.921C42.5275 58.7316 41.8047 59.2971 41.7319 59.1769C41.6591 59.0571 40.7672 58.0671 39.7499 56.9775L37.8999 54.9955L39.0097 53.8143C40.5028 52.2255 41.3064 52.372 43.2056 54.5799ZM51.4693 63.083C53.2375 64.9555 56.2678 68.1788 58.2032 70.2453C60.1382 72.3118 63.7461 76.1249 66.2198 78.7183C68.6939 81.3123 71.603 84.4824 72.6842 85.7632C73.7653 87.0444 75.4561 88.9705 76.4414 90.0441C78.7953 92.6094 82.3732 96.7663 82.7902 97.4215C82.972 97.707 82.6846 98.4049 82.151 98.9727L81.1812 100.005L79.3021 97.8061C76.8143 94.8947 70.2772 88.1955 67.13 85.332C62.2122 80.8576 55.1852 73.8724 52.8712 71.1578C51.5796 69.6427 49.2891 67.1714 47.7806 65.6661L45.0382 62.929L46.2781 61.3035C46.9601 60.4093 47.6834 59.678 47.8858 59.678C48.0882 59.678 49.701 61.2105 51.4693 63.083Z" fill="white"/>
<path fill-rule="evenodd" clip-rule="evenodd" d="M31.902 27.4923C31.7352 27.6628 31.7488 28.3701 31.9325 29.0638C32.5736 31.4849 33.3034 31.575 53.912 31.7775L72.9533 31.9639L72.6743 30.2459C72.5212 29.3014 72.2295 28.3668 72.0262 28.17C71.5692 27.7262 32.3223 27.0631 31.902 27.4923ZM56.1583 37.6679C36.4412 38.5602 28.7252 39.1126 27.7737 39.7006C26.9396 40.2162 28.2147 42.7702 29.3165 42.7895C29.8726 42.7994 34.4484 42.7829 39.4855 42.7529C48.8026 42.697 50.731 42.6223 57.8021 42.0441C59.9978 41.8647 64.5887 41.7328 68.004 41.7516C71.5443 41.7703 74.335 41.5895 74.4952 41.3298C74.9968 40.5187 73.7677 37.7144 72.7997 37.4612C71.7031 37.1743 65.3181 37.2537 56.1583 37.6679ZM68.0534 50.0325C67.9688 50.1049 64.0143 50.2833 59.2651 50.4294C54.516 50.5755 50.4529 50.8723 50.2364 51.0888C50.0195 51.3058 50.0091 52.1061 50.213 52.8674C50.5013 53.9471 50.9386 54.3294 52.1968 54.6037C54.515 55.1095 70.9939 54.6596 71.5786 54.0749C71.897 53.7564 71.9125 52.9867 71.6246 51.8215C71.24 50.2641 71.0084 50.0424 69.6972 49.9762C68.8771 49.9348 68.1374 49.9602 68.0534 50.0325ZM20.3155 51.1625C19.8595 51.4514 19.8059 51.9755 20.1117 53.1515L20.5264 54.7479L24.4086 54.8113C26.5436 54.846 28.6961 54.7685 29.1916 54.6389C30.1821 54.3801 30.3634 53.0792 29.6063 51.6641C29.1822 50.8718 28.597 50.7567 25.0271 50.7628C22.776 50.7671 20.6555 50.947 20.3155 51.1625ZM21.8734 61.835C17.4821 62.1487 13.6252 62.4258 13.3021 62.4512C12.5901 62.5071 12.5347 64.1002 13.2011 65.3461C13.6431 66.1713 14.2344 66.2545 19.6589 66.2521C22.9432 66.2507 27.7013 66.1126 30.2328 65.945L34.8345 65.6402L34.6945 63.4816L34.5541 61.3231L32.2058 61.2944C30.9143 61.2785 26.2647 61.5217 21.8734 61.835ZM21.7268 70.5067C19.681 71.3272 17.7113 74.1738 16.0656 78.6872C14.9699 81.6925 14.7134 82.0523 13.8868 81.74C13.3716 81.5455 12.4375 80.8349 11.8114 80.1605C11.0243 79.3137 10.1902 78.9352 9.11091 78.9352C8.2519 78.9352 7.54883 79.1564 7.54883 79.4274C7.54883 80.8279 11.6541 83.1504 14.1456 83.1593C14.674 83.1612 14.8745 83.6604 14.882 84.9933C14.9102 89.8068 20.0807 92.1753 27.219 90.6447C29.1122 90.2384 29.766 90.2746 30.647 90.8335C31.2463 91.2129 32.3909 91.6601 33.1916 91.8263C35.1224 92.2279 40.1233 91.3938 42.3298 90.3018C44.0853 89.4334 44.1093 89.4348 45.8644 90.4939C46.8366 91.081 48.4048 91.6915 49.3493 91.8507C51.4425 92.2044 56.9511 91.3022 58.1229 90.4141C58.9021 89.8237 58.8377 89.7659 57.387 89.7523C56.5129 89.7439 54.9997 89.9763 54.0247 90.2685C51.7924 90.9373 50.4854 90.6085 48.409 88.8562L46.7652 87.4688L48.239 85.9025C50.8169 83.1626 51.8549 80.1835 50.8071 78.5303C50.204 77.5779 46.5914 77.035 44.4986 77.5816C43.0991 77.9475 42.5543 78.4049 42.0329 79.6523C41.1767 81.7019 41.1814 84.1643 42.0461 86.2332L42.728 87.8652L40.2849 89.2667C37.3533 90.9481 35.1886 91.0763 33.766 89.6537L32.7436 88.6312L34.3531 87.443C39.2465 83.8323 41.9803 79.4819 40.182 78.1668C38.1982 76.7161 33.2038 76.84 31.8221 78.3749C30.2431 80.1281 28.6674 84.0638 28.6153 86.3839C28.5664 88.5509 28.4476 88.782 27.0964 89.3479C26.29 89.6852 24.7153 89.9637 23.5961 89.9665C21.8879 89.9712 21.3417 89.726 20.1911 88.4382C19.2442 87.3787 18.8206 86.4093 18.8206 85.3014C18.8206 83.7266 18.868 83.6886 21.5211 83.1508C26.5389 82.134 31.0317 78.2246 31.0317 74.8759C31.0317 71.726 25.3446 69.056 21.7268 70.5067ZM26.6019 73.0682C27.5224 75.2709 27.1157 76.5568 24.7735 78.8497C22.7756 80.8058 19.2902 82.6492 19.2902 81.7503C19.2902 79.5232 24.123 71.4207 25.4512 71.4207C25.7053 71.4207 26.2233 72.1623 26.6019 73.0682ZM37.1372 79.5692C37.1372 80.6729 35.1689 83.7656 33.6932 84.9806C33.0202 85.5353 32.9103 85.5198 32.9103 84.8731C32.9103 83.7919 34.3414 80.2535 35.1694 79.2874C36.1646 78.1264 37.1372 78.2659 37.1372 79.5692ZM47.0437 81.7926C46.7469 82.7826 46.2988 83.7191 46.0476 83.8746C45.4295 84.2564 45.4619 81.214 46.0936 79.5528C46.5576 78.3331 46.6346 78.2988 47.0897 79.1118C47.4382 79.735 47.4246 80.5207 47.0437 81.7926Z" fill="white"/>
</svg>
